<?xml version="1.0" encoding="utf-8"?>
<!-- Generator: Adobe Illustrator 25.2.1, SVG Export Plug-In . SVG Version: 6.00 Build 0)  -->
<svg version="1.1" id="Layer_1" xmlns="http://www.w3.org/2000/svg" xmlns:xlink="http://www.w3.org/1999/xlink" x="0px" y="0px"
	 viewBox="0 0 512 512" style="enable-background:new 0 0 512 512;" xml:space="preserve">
<style type="text/css">
	.st0{fill:#E8F2FC;stroke:#000000;stroke-width:3;stroke-miterlimit:10;}
	.st1{fill:#3B94EC;stroke:#000000;stroke-width:3;stroke-linejoin:round;stroke-miterlimit:10;}
	.st2{fill:none;stroke:#000000;stroke-width:3;stroke-linecap:round;stroke-linejoin:round;stroke-miterlimit:10;}
	.st3{fill:#D8DBD7;}
	.st4{fill:#E8F2FC;}
	.st5{fill:#FFFFFF;stroke:#000000;stroke-width:3;stroke-linecap:round;stroke-linejoin:round;stroke-miterlimit:10;}
</style>
<g>
	<g>
		<g>
			<path class="st0" d="M81.84,237.72c3.14,5.27,8.9,8.81,15.48,8.81c0.04,0,0.08-0.01,0.13-0.01v0.01h50.96v0
				c8.15-0.03,14.75-6.65,14.75-14.81c0-7.68-5.84-13.99-13.32-14.74c-0.92-14.5-12.97-25.98-27.7-25.98
				c-7.57,0-14.43,3.03-19.44,7.94"/>
		</g>
	</g>
</g>
<rect x="242.11" y="283.09" class="st1" width="40.17" height="40.17"/>
<path class="st1" d="M301.72,253.27v129.54h43.7v43.7h129.54V253.27H301.72z M374.15,321.17h-41.27v-41.27h41.27V321.17z"/>
<g>
	<g>
		<path class="st2" d="M233.05,90.54l28.04-21.94C278.12,55.28,299.22,48,320.85,48h180.14"/>
		<line class="st2" x1="500.99" y1="100.31" x2="236.44" y2="100.31"/>
		<path class="st2" d="M236.43,100.31c0,8.77-7.11,15.87-15.87,15.87c-8.77,0-15.87-7.11-15.87-15.87c0-8.77,7.11-15.87,15.87-15.87
			C229.32,84.44,236.43,91.55,236.43,100.31z"/>
		<path class="st2" d="M228.82,100.31c0,4.56-3.7,8.26-8.26,8.26s-8.26-3.7-8.26-8.26c0-4.56,3.7-8.26,8.26-8.26
			S228.82,95.75,228.82,100.31z"/>
		<g>
			<line class="st2" x1="449.98" y1="48.21" x2="500.99" y2="99.33"/>
			<line class="st2" x1="499.83" y1="48.21" x2="448.69" y2="99.33"/>
		</g>
		<g>
			<line class="st2" x1="397.68" y1="48.21" x2="448.69" y2="99.33"/>
			<line class="st2" x1="447.53" y1="48.21" x2="396.38" y2="99.33"/>
		</g>
		<g>
			<line class="st2" x1="345.37" y1="48.21" x2="396.38" y2="99.33"/>
			<line class="st2" x1="395.23" y1="48.21" x2="344.08" y2="99.33"/>
		</g>
		<g>
			<line class="st2" x1="296.08" y1="51.22" x2="344.08" y2="99.33"/>
			<line class="st2" x1="342.92" y1="48.21" x2="291.78" y2="99.33"/>
		</g>
	</g>
	<g>
		<g>
			<line class="st2" x1="220.56" y1="117.02" x2="220.56" y2="172.06"/>
			<line class="st2" x1="220.56" y1="172.06" x2="199.14" y2="193.48"/>
			<line class="st2" x1="220.56" y1="172.06" x2="241.97" y2="193.48"/>
		</g>
		<g>
			<rect x="175.3" y="194.62" class="st2" width="90.5" height="28.47"/>
			<g>
				<path class="st2" d="M201.84,208.85c0,4.42-3.58,8.01-8.01,8.01c-4.42,0-8.01-3.58-8.01-8.01c0-4.42,3.58-8.01,8.01-8.01
					C198.26,200.85,201.84,204.43,201.84,208.85z"/>
				<path class="st2" d="M228.56,208.85c0,4.42-3.58,8.01-8.01,8.01c-4.42,0-8.01-3.58-8.01-8.01c0-4.42,3.58-8.01,8.01-8.01
					C224.98,200.85,228.56,204.43,228.56,208.85z"/>
				<path class="st2" d="M255.29,208.85c0,4.42-3.58,8.01-8.01,8.01c-4.42,0-8.01-3.58-8.01-8.01c0-4.42,3.58-8.01,8.01-8.01
					C251.7,200.85,255.29,204.43,255.29,208.85z"/>
			</g>
		</g>
	</g>
</g>
<g>
	<g>
		<g>
			<path class="st0" d="M122.15,229.26c0-10.82-8.23-19.71-18.77-20.77c-1.3-20.44-18.27-36.62-39.04-36.62
				c-17.61,0-32.5,11.63-37.41,27.63c-12.87,1.22-22.95,12.06-22.95,25.25c0,14.02,11.36,25.37,25.37,25.37
				c0.06,0,0.12-0.01,0.18-0.01v0.01h71.82v0C112.85,250.09,122.15,240.76,122.15,229.26z"/>
		</g>
	</g>
</g>
<g>
	<path class="st3" d="M62.05,322.91l32.26-32.02H19.29l32.26,32.02C54.45,325.79,59.15,325.79,62.05,322.91z"/>
	<path class="st3" d="M62.05,330.42c-2.9,2.88-7.61,2.88-10.5,0L19.29,298.4v41.42c0,3.67,2.98,6.64,6.64,6.64h61.74
		c3.67,0,6.65-2.97,6.65-6.64V298.4L62.05,330.42z"/>
</g>
<g>
	<g>
		<g>
			<path class="st2" d="M448.98,484.05c0,2.43-1.96,4.39-4.39,4.39H403.8c-2.42,0-4.39-1.97-4.39-4.39v-27.36h49.57V484.05z"/>
		</g>
		<path class="st2" d="M427.66,477.85c-1.92,1.9-5.02,1.9-6.94,0l-21.31-21.15v27.36c0,2.43,1.97,4.39,4.39,4.39h40.79
			c2.43,0,4.39-1.97,4.39-4.39v-27.36L427.66,477.85z"/>
	</g>
</g>
<g>
	<polygon class="st3" points="177.22,382.4 177.22,424.51 184.7,424.51 184.7,388.58 	"/>
	<polygon class="st3" points="194.83,373.29 194.83,424.51 205.85,424.51 205.95,385.24 	"/>
	<polygon class="st3" points="219.28,369.89 219.28,424.51 235,424.51 235,376.58 	"/>
	<path class="st2" d="M187.52,309.03v-40.77c0-4.69-3.79-8.48-8.47-8.48h-48.06c-4.68,0-8.48,3.79-8.48,8.48v104.87
		c0,4.69,3.8,8.48,8.48,8.48h36.54"/>
	<polygon class="st1" points="122.51,356.92 167.52,356.92 167.52,309.49 187.52,309.03 187.52,274.83 122.51,274.83 	"/>
	<path d="M155.02,373.29c-2.46,0-4.45-1.98-4.45-4.44c0-2.46,1.99-4.44,4.45-4.44c2.45,0,4.44,1.98,4.44,4.44
		C159.46,371.31,157.47,373.29,155.02,373.29z"/>
	<rect x="167.52" y="309.49" class="st2" width="67.49" height="115.02"/>
	<g>
		<rect x="175.32" y="317.97" width="7.34" height="7.34"/>
		<rect x="185.82" y="317.97" width="7.34" height="7.34"/>
		<rect x="175.32" y="327.96" width="7.34" height="7.34"/>
		<rect x="185.82" y="327.96" width="7.34" height="7.34"/>
	</g>
	<polyline class="st2" points="167.52,388.58 177.22,382.4 184.7,388.58 194.93,373.29 205.95,385.24 219.33,369.89 235,376.58 	"/>
</g>
<path class="st2" d="M359.1,513.33c0.26-0.81,0.43-1.67,0.4-2.57c-0.12-4.27-3.67-7.63-7.92-7.51l-2.33,0.06
	c-2.52,0.07-4.78-1.65-5.25-4.13c-0.67-3.46-1.61-6.86-2.82-10.17c-0.91-2.52-0.19-5.44,2.1-6.84l1.72-1.06
	c3.63-2.23,4.77-6.98,2.55-10.62c-2.23-3.63-6.99-4.78-10.62-2.55l-1.57,0.97c-2.15,1.32-4.96,0.98-6.63-0.92
	c-2.42-2.77-5.11-5.35-8.03-7.72c-1.99-1.61-2.59-4.43-1.36-6.69l0.83-1.52c2.03-3.74,0.64-8.43-3.11-10.47
	c-3.75-2.03-8.44-0.64-10.46,3.1l-0.83,1.52c-1.21,2.25-3.89,3.31-6.33,2.52c-3.43-1.11-6.89-1.92-10.38-2.45
	c-2.64-0.41-4.8-2.46-4.88-5.13l-0.04-1.83c-0.11-4.26-3.67-7.63-7.93-7.52c-4.27,0.11-7.62,3.66-7.51,7.92l0.06,2.02
	c0.07,2.55-1.63,4.82-4.11,5.38c-3.45,0.78-6.82,1.82-10.09,3.12c-2.47,0.99-5.4,0.32-6.79-1.96l-1.22-1.98
	c-2.22-3.64-6.97-4.77-10.6-2.55c-3.63,2.23-4.77,6.98-2.55,10.6l1.37,2.23c1.4,2.28,0.75,5.2-1.19,7.05
	c-2.38,2.27-4.63,4.73-6.69,7.38c-1.6,2.06-4.43,2.8-6.73,1.55l-2.65-1.44c-3.74-2.03-8.43-0.64-10.47,3.11
	c-2.03,3.74-0.64,8.43,3.11,10.46l2.95,1.61c2.36,1.29,3.26,4.16,2.49,6.74c-0.93,3.15-1.61,6.33-2.04,9.53
	c-0.36,2.52-2.49,4.42-5.03,4.48l-3.76,0.11c-3.65,0.1-6.63,2.72-7.33,6.16"/>
<path class="st2" d="M303.43,513.33c0.4-8.97-4.22-17.81-12.64-22.37c-11.74-6.36-26.42-2.01-32.79,9.73
	c-2.18,4.02-3.1,8.38-2.91,12.64c-0.2-4.26,0.72-8.62,2.91-12.64c6.37-11.74,21.05-16.09,32.79-9.73
	C299.2,495.52,303.83,504.36,303.43,513.33"/>
<g>
	<g>
		<path class="st2" d="M48.95,398.37v32.37c0,4.77-1.69,9.39-4.78,13.03l-23.61,27.88c-2.49,2.93-3.04,7.04-1.42,10.53
			c1.62,3.49,5.11,5.72,8.96,5.72H97.5c3.85,0,7.34-2.23,8.96-5.72c1.62-3.49,1.06-7.6-1.42-10.54l-23.61-27.88
			c-3.08-3.64-4.78-8.26-4.78-13.03v-32.37"/>
		<g>
			<path class="st4" d="M87.57,456.97H38.02l-14.53,17.16c-1.52,1.79-1.86,4.32-0.87,6.44c0.99,2.13,3.14,3.5,5.48,3.5H97.5
				c2.35,0,4.5-1.37,5.48-3.5c0.99-2.13,0.64-4.65-0.87-6.44L87.57,456.97z"/>
		</g>
		<g>
			<path class="st2" d="M82.12,394.5c0,2.14-1.73,3.87-3.86,3.87H47.34c-2.13,0-3.87-1.73-3.87-3.87c0-2.13,1.73-3.86,3.87-3.86
				h30.92C80.39,390.64,82.12,392.37,82.12,394.5z"/>
		</g>
	</g>
</g>
<g>
	<path class="st1" d="M406.09,205.91c0,14.57-11.81,26.38-26.38,26.38h-32.82c-14.57,0-26.38-11.81-26.38-26.38v-32.24
		c0-14.57,11.81-26.38,26.38-26.38h32.82c14.57,0,26.38,11.81,26.38,26.38V205.91z"/>
	<g>
		<path class="st5" d="M390.78,189.79c0,15.17-12.3,27.48-27.48,27.48c-15.18,0-27.48-12.3-27.48-27.48
			c0-15.17,12.3-27.48,27.48-27.48C378.48,162.32,390.78,174.62,390.78,189.79z"/>
		<path class="st3" d="M385.42,177.92c0.07,0.76,0.11,1.53,0.11,2.31c0,14.03-11.38,25.41-25.41,25.41
			c-9.53,0-17.63-6.61-21.98-14.37c0.85,12.79,11.84,24.46,25.1,24.46c14.04,0,25.41-11.38,25.41-25.41
			C388.66,185.82,387.48,181.59,385.42,177.92z"/>
	</g>
	<g>
		<g>
			<path d="M370.39,207.56c0,0.4-0.2,0.59-0.59,0.59H356.8c-0.39,0-0.59-0.2-0.59-0.59v-2.02c0-0.39,0.2-0.59,0.59-0.59h4.48v-17.23
				h-4.48c-0.39,0-0.59-0.2-0.59-0.59v-2.02c0-0.39,0.2-0.59,0.59-0.59h12.99c0.39,0,0.59,0.2,0.59,0.59v2.02
				c0,0.39-0.2,0.59-0.59,0.59h-4.48v17.23h4.48c0.39,0,0.59,0.2,0.59,0.59V207.56z"/>
		</g>
		<path class="st2" d="M368.21,176.33c0,2.71-2.2,4.9-4.9,4.9c-2.71,0-4.9-2.2-4.9-4.9c0-2.71,2.2-4.9,4.9-4.9
			C366.01,171.43,368.21,173.63,368.21,176.33z"/>
	</g>
</g>
<path class="st2" d="M442.29,148.82v17.71c0,9.56-7.75,17.31-17.31,17.31h-18.89"/>
<polygon class="st2" points="456.1,148.82 456.1,148.82 428.49,148.82 428.49,148.82 428.49,121.21 428.49,121.21 456.1,121.21 
	456.1,121.21 "/>
<path class="st2" d="M488.2,177.53v17.71c0,9.56-7.75,17.31-17.31,17.31h-64.79"/>
<polygon class="st2" points="502,177.53 502,177.53 474.39,177.53 474.39,177.53 474.39,149.92 474.39,149.92 502,149.92 
	502,149.92 "/>
<g>
	<path class="st1" d="M98.09,102.91c0,14.57-11.81,26.38-26.38,26.38H38.89c-14.57,0-26.38-11.81-26.38-26.38V70.67
		c0-14.57,11.81-26.38,26.38-26.38h32.82c14.57,0,26.38,11.81,26.38,26.38V102.91z"/>
	<g>
		<path class="st5" d="M82.78,86.79c0,15.17-12.3,27.48-27.48,27.48s-27.48-12.3-27.48-27.48c0-15.17,12.3-27.48,27.48-27.48
			S82.78,71.62,82.78,86.79z"/>
		<path class="st3" d="M77.42,74.92c0.07,0.76,0.11,1.53,0.11,2.31c0,14.03-11.38,25.41-25.41,25.41c-9.53,0-17.63-6.61-21.98-14.37
			c0.85,12.79,11.84,24.46,25.1,24.46c14.04,0,25.41-11.38,25.41-25.41C80.66,82.82,79.48,78.59,77.42,74.92z"/>
	</g>
	<g>
		<g>
			<path d="M62.39,104.56c0,0.4-0.2,0.59-0.59,0.59H48.8c-0.39,0-0.59-0.2-0.59-0.59v-2.02c0-0.39,0.2-0.59,0.59-0.59h4.48V84.73
				H48.8c-0.39,0-0.59-0.2-0.59-0.59v-2.02c0-0.39,0.2-0.59,0.59-0.59H61.8c0.39,0,0.59,0.2,0.59,0.59v2.02
				c0,0.39-0.2,0.59-0.59,0.59h-4.48v17.23h4.48c0.39,0,0.59,0.2,0.59,0.59V104.56z"/>
		</g>
		<path class="st2" d="M60.21,73.33c0,2.71-2.2,4.9-4.9,4.9c-2.71,0-4.9-2.2-4.9-4.9c0-2.71,2.2-4.9,4.9-4.9
			C58.01,68.43,60.21,70.63,60.21,73.33z"/>
	</g>
</g>
<path class="st2" d="M134.29,45.82v17.71c0,9.56-7.75,17.31-17.31,17.31H98.09"/>
<polygon class="st2" points="148.1,45.82 148.1,45.82 120.49,45.82 120.49,45.82 120.49,18.21 120.49,18.21 148.1,18.21 
	148.1,18.21 "/>
<path class="st2" d="M180.2,74.53v17.71c0,9.56-7.75,17.31-17.31,17.31H98.09"/>
<polygon class="st2" points="194,74.53 194,74.53 166.39,74.53 166.39,74.53 166.39,46.92 166.39,46.92 194,46.92 194,46.92 "/>
<g>
</g>
<g>
</g>
<g>
</g>
<g>
</g>
<g>
</g>
<g>
</g>
<g>
</g>
<g>
</g>
<g>
</g>
<g>
</g>
<g>
</g>
<g>
</g>
<g>
</g>
<g>
</g>
<g>
</g>
</svg>
